<?xml version="1.0" encoding="utf-8"?>
<!-- Generator: Adobe Illustrator 23.0.3, SVG Export Plug-In . SVG Version: 6.00 Build 0)  -->
<svg version="1.1"
	 id="_x31_9-CM-PVC-2-Generation-Schuluniform-Hatsune-Miku-Action-Figure-Offenen-Augen-Autoinnenausstattung-Modell-Urlaub-Geschenke.jpg_x5F_640x640_xA0_Bild_1_"
	 xmlns="http://www.w3.org/2000/svg" xmlns:xlink="http://www.w3.org/1999/xlink" x="0px" y="0px" viewBox="0 0 1589.53 1965.24"
	 style="enable-background:new 0 0 1589.53 1965.24;" xml:space="preserve">
<g>
	<path d="M574.33,1207.83c-5.46,33.66-15.41,60.83-26.98,93.59c-5.75,16.28-11.65,39.41-16,55.89c-4.88,18.47-3.51,38.25-4.37,57.16
		c-0.59,12.97-0.73,25.95-1.73,38.92c-0.67,8.62-0.16,17.33-0.13,25.35c0,0.47,0.17,0.94,0.5,1.28c2.59,2.68,5.55,2.81,8.21,3.59
		c77.32,22.7,139.79,81.01,133.09,166.65c-0.51,6.56-2.06,44.33-9.84,45.17c-10.8,1.17-7.01-43.64-7.74-49.73
		c-2.65-22.15-10.91-43.66-24.07-61.7c-21.74-29.79-53.87-46.72-89.71-52.25c-4.72-0.73-9.49-1.72-14.17-0.83
		c-0.33,0.06-0.64,0.21-0.9,0.43c-3.1,2.73-3.03,7.03-3.38,10.81c-2.54,27.51-5.07,55.01-4.44,82.71
		c0.83,36.26,1.94,72.51,6.31,108.55c1.17,9.62,2.99,19.15,5.32,28.55c4.82,19.4,8.07,39.07,11.19,58.79
		c3.72,23.47,9.17,46.44,21.14,67.26c4.63,8.06,10.23,15.56,15.2,23.43c6.55,10.37,11.78,31.28,6.79,43.23
		c-3.16,7.57-15.27,9.06-22.32,9.7c-20.74,1.89-47.15,1.39-65.68-9.53c-9.8-5.78-22.42-21.48-24.69-32.75
		c-1.99-9.84-6.55-19.05-6.78-29.3c-0.01-0.53-0.24-1.03-0.63-1.39c-5.67-5.12-9.73-11.41-13.05-17.93
		c-20.94-41.1-66.97-68.11-103.82-92.9c-47.11-31.69-99.98-55.11-146.08-87.73C76.36,1608.51-6.97,1468.51,0.46,1319.62
		c4.42-88.67,39.86-172.89,81.91-251.08c66.59-123.83,154.35-231.97,231.11-348.82C385.5,610.08,464.2,502.07,501.13,374.43
		c12.67-43.79,18.6-88.67,15.04-134.25c-1.41-18.07-4.2-36.17-2.8-54.24c1.99-25.74,14.32-50.58,40.26-58.87
		c0.64-0.2,1.12-0.74,1.26-1.4l15.4-68.05c0.18-0.79,0.83-1.38,1.62-1.48l19.48-2.6c0.79-0.11,1.57,0.29,1.95,1l25.23,46.75
		c0.58,1.08,2.02,1.34,2.95,0.54c18.17-15.6,37.84-29.19,62.6-26.72c0.45,0.04,0.9-0.07,1.27-0.33
		c25.91-17.94,53.31-21.55,82.77-14.87c1.24,0.28,2.41-0.67,2.37-1.93l-1.44-46.95c-0.02-0.76,0.41-1.47,1.09-1.8l18.91-9.05
		c0.6-0.29,1.3-0.25,1.86,0.11l56.49,35.49c0.53,0.33,1.2,0.4,1.77,0.15c1.99-0.88,5.42-3.74,9.13-5.07
		c7.82-2.81,15.47-2.93,23.08,1.19c8.05,4.35,14.79,9.88,20.15,17.44c11.41,16.09,20.17,33.69,29.77,50.81
		c14.65,26.13,29.69,52.02,44.94,77.81c16.79,28.38,33.82,56.58,51.68,84.3c2.75,4.26,5.82,8.02,9.83,11.14
		c17.88,13.92,36.15,27.27,54.81,40.12c14.06,9.68,28.32,19.09,41.55,29.96c0.34,0.28,0.57,0.66,0.66,1.09
		c1.93,8.91,6.33,16.46,10.87,23.99c1.7,2.82,3.02,5.94,4.1,9.07c3.18,9.15,1.16,17.23-5.08,23.79c-0.33,0.34-0.54,0.79-0.54,1.26
		c0,4.68,3.17,7.19,5.64,9.94c36.17,40.18,69.7,78.92,107.98,117.08c39.59,39.47,76.38,81.76,110.06,126.39
		c66.58,88.25,120.98,185.71,160.74,288.87c30.71,79.67,52.88,163.12,59.22,248.27c6.7,89.89-6.23,183.35-45.52,265.05
		c-35.78,74.41-98.77,129.63-154.33,188.86c-34.6,36.88-71.35,76.16-84.18,126.46c-8.16,31.98-7.37,66.19,2.25,97.76
		c3.64,11.94,8.51,23.5,14.25,34.59c2.91,5.63-2.19,7.55-6.91,5.53c-6.16-2.63-12.35-9.99-16.91-14.74
		c-10.47-10.91-19.06-23.57-25.7-37.13c-31.63-64.62-18.13-138.38-0.66-204.89c12.53-47.68,25.24-95.34,35.16-143.65
		c2.97-14.49,5.7-29.03,8.08-43.63c11.6-70.96,12.14-142.83,14.18-214.53c0.04-1.27-0.13-2.85-1.31-3.3
		c-1.6-0.61-2.82,1.48-3.27,3.13c-7.57,27.7-19.87,53.18-30.76,79.66c-25.69,62.42-66.21,115.46-82.23,182.13
		c-8.57,35.65-11.99,72.55-9.99,109.17c1.54,28.35,6.82,54.68,15.49,81.58c2.11,6.54,8.37,34.35-6.89,23.56
		c-24.65-17.42-37.84-48.79-47.14-76.48c-10.66-31.75-14.54-65.34-13.63-98.73c2.58-95.32,39.23-184.88,63.32-275.95
		c36.07-136.36,52.04-277.46,12.33-414.88c-36.01-124.59-106.34-234.88-165.96-348.88c-3.63-6.93-7.22-13.88-10.76-20.86
		c-7.46-14.66-16.61-28.01-25.15-41.66c-0.32-0.52-0.87-0.86-1.48-0.9c-8.63-0.66-16.63,0.65-24.37,2.34
		c-13.34,2.91-26.8,5.02-40.19,7.57c-29.63,5.64-49.94,23.51-64.75,48.85c-4.06,6.95-7.72,13.97-9.69,21.8
		c-5.07,20.23-1.21,38.56-11.38,57.51c-9.91,18.46-7.07,41.04-17.06,59.57c-4.92,9.11-7.25,19-9.94,28.79
		c-2.13,7.77-0.89,15.41,2.31,22.45c4.54,9.99,5.17,20.26,5.13,31.01c-0.08,19.26,3.92,37.71,15.06,53.88
		c5.39,7.82,8.42,16.6,11.77,25.28c6.59,17.08,12.21,34.57,19.6,51.28c5.88,13.31,10.2,27.37,18.07,39.55
		c0.33,0.51,0.42,1.15,0.2,1.72c-2.6,6.73-7.77,11.38-14.25,14.31c-3.3,1.49-6.76,2.58-10.22,3.62c-1.83,0.55-3.67,1.05-5.5,1.61
		c-3.61,1.1-7.25-1.99-9.59,1.98c-1.57,2.67-3.13,3.01-5.96,3.83c-1.2,0.35-1.77,1.74-1.14,2.82
		c10.14,17.46,20.57,34.54,26.91,54.79c0.07,0.21,0.17,0.41,0.3,0.58c5.81,7.66,13.09,15.79,16.28,25.78
		c0.16,0.5,0.1,1.05-0.14,1.51c-1.51,2.88-4.25,3.3-6.03,4.36c-0.41,0.24-0.72,0.63-0.84,1.08c-0.98,3.6,1.23,5.74,2.6,8.13
		c7.6,13.29,16.52,25.79,23.43,39.49c3.31,6.55,6.25,13.22,7.68,20.46c0.67,3.43,1.29,6.87-0.52,10.91c-0.18,0.4-0.5,0.73-0.89,0.92
		c-8.27,4.13-17.86,5.14-27.93,7.11c-0.72,0.14-1.47-0.14-1.92-0.73c-15.96-21.13-27.14-45.06-40.99-67.31
		c-1.26-2.02-4.35-0.38-3.4,1.8c0.16,0.37,0.32,0.73,0.42,1.08c3.03,10.56,6.25,21.06,9.47,31.57c4.58,14.96,8.51,30.05,10.1,45.68
		c0.47,4.6,3.27,8.48,4.43,13.04c6.88,26.92,8.55,55.29,12.61,82.74c6.79,47.83,7.83,103.95,29.05,148.02
		c8.58,17.82,18.76,34.37,30.1,50.47c27.67,39.29,52.21,80.46,71.75,124.44c15.81,35.58,31.38,71.27,46.79,107.02
		c2.42,5.61,6.21,10.21,9.34,15.26c9.66,15.59,16.16,32.75,25.05,48.77c10.12,18.24,17.19,38.17,19.8,59.32
		c1.46,11.86-1.24,23.71-1.36,35.58c-0.11,10.49,0.6,20.99,0.13,31.47c-0.43,9.5-3.03,18.7-0.92,28.2
		c2.12,9.5,2.64,19.21,3.38,28.89c0.5,6.47,4.1,17.91,0.5,23.79c-1.62,2.65-4.33,4.43-7.02,6c-21.75,12.73-45.7,14.76-69.96,19.23
		c-28.53,5.27-38.97-24.11-31.3-47.2c1.37-4.13,2.87-8.13,4.83-12c11.87-23.42,13.62-50.43,13.65-76.23
		c0.03-25.56,0.53-55.26-7.76-79.68c-2.7-7.93-6.86-15.11-10.1-22.75c-17.1-40.35-38.03-78.95-60.11-116.76
		c-23.29-39.88-45.71-80.03-75.51-115.54c-10.6-12.63-23.4-22.99-32.61-36.6c-7.38-10.9-11.2-23.74-18.33-33.18
		c-0.11-0.15-0.2-0.31-0.26-0.48c-7.82-21.42-13.92-42.22-22.94-61.67c-19.57-42.16-35.18-85.99-53.91-128.57
		c-18.37-41.76-37.4-83.36-51.63-126.77c-6.35-19.38-11.45-38.76-14.6-58.81c-0.08-0.52-0.37-0.99-0.8-1.29
		c-3.35-2.33-6.85-4.78-9.65-6.72c-3.71-1.66-5.64,1.21-8.11,1.28c-0.18,0.01-0.35-0.02-0.52-0.07c-16.17-4.02-31.91-9.16-47-15.07
		c-0.46-0.18-0.98-0.18-1.44,0.01c-1.33,0.56-1.94,1.47-2.25,2.59c-9.33,33.66-17.47,67.66-29.48,100.54
		c-1.7,4.65-3.58,9.61-3.58,14.42 M281.21,1007.89c-0.25,0.2-0.44,0.47-0.56,0.77c-22.64,56.52-37.32,122.15-41.21,182.87
		c-3.05,47.53,3.52,96.79,26.83,138.32c17.93,31.95,44.88,57.66,74.36,78.95c9.3,6.72,66.41,49.89,79.01,37.53
		c0.2-0.2,0.35-0.45,0.44-0.72c0.98-2.96,0.34-6.18,0.41-9.33c0.48-21.3,1.31-42.61,4.96-63.6c17.2-98.8,13.75-198.39,25.28-297.52
		c0.62-5.29,0.48-10.41,4.64-14.74c1.89-1.97,2.6-5.35,3.23-8.23c2.35-10.72,4.42-21.49,6.63-32.24
		c3.89-18.89,7.52-37.84,11.8-56.65c2.54-11.19,6.01-22.17,9.05-33.01c0.2-0.72-0.04-1.5-0.6-1.98
		c-17.03-14.68-18.83-15.75-27.24-14.44c-0.66,0.1-1.23,0.54-1.49,1.15c-5.37,12.69-10.91,25.5-16.21,38.4
		c-9.34,22.76-19.78,45.06-28.32,68.16c-1,2.71-3.06,4.64-5.43,6.1c-0.31,0.19-0.67,0.29-1.03,0.28c-7.98-0.07-14.26-4-20.12-8.73
		c-13.18-10.63-26.04-21.61-36.7-34.92c-2.14-2.67-4.08-5.81-7.68-7.05c-0.77-0.27-1.63,0.03-2.12,0.67
		c-8.62,11.42-14.78,24.91-27.84,31.04c-0.35,0.16-0.74,0.22-1.12,0.16c-4.18-0.65-6.4-2.43-7.49-6.33
		c-0.12-0.42-0.08-0.87,0.09-1.27c3.85-8.83,12.76-15.17,17.19-24.93c0.65-1.43-0.59-2.98-2.13-2.7c-6.41,1.18-10.22,5.5-13.64,9.92
		C297.36,992.69,289.79,1000.8,281.21,1007.89z M347,906.52c12.66-31.2,35.45-58.35,55.83-84.76c17.69-22.92,34.99-46.7,51.38-70.63
		c4.33-6.33,8.44-12.67,15.86-16.12c2.54-1.18,4.49-3.93,6.33-6.27c10.77-13.64,22.82-26.03,36.13-37.21
		c3.59-3.01,6.82-6.33,8.8-10.71c2.47-5.45,5.05-10.84,7.6-16.25c6.38-13.55,12.07-27.46,20.45-39.96
		c6.98-10.41,10.66-22.07,13.7-34.02c1.14-4.5,1.71-9.21,3.4-13.49c3.87-9.82,6.96-20,12.53-29.1c1.63-2.58,5.31-2.71,6.48-5.04
		c2.96-7.74,5.84-14.83,8.4-22.04c6.56-18.48,13.62-36.78,19.58-55.48c4.91-15.4,9.97-30.92,21.81-42.23
		c0.1-0.09,0.21-0.18,0.32-0.25c9.98-6.5,21.18-8.69,31.7-12.57c9.92-3.65,20.91-3.71,31.64-8.15c0.93-0.39,1.44-1.43,1.11-2.38
		c-1.3-3.76-0.44-7.49-1.43-10.85c-0.05-0.18-0.14-0.35-0.23-0.51c-3.94-6.2-7.74-12.17-11.78-18.53c-0.18-0.28-0.44-0.52-0.74-0.67
		c-7.62-3.91-13.78-10.17-18.66-17.56c-3.09-4.68-5.21-9.99-7.89-14.95c-0.93-1.72-3.11-4.16-4.5-1.9
		c-0.95,1.54,1.53,8.8,1.87,10.69c0.7,3.9,1.4,7.79,2.21,11.67c0.69,3.26,2.67,7.31,0.57,10.41c-4.87,7.17-20.6-12.57-23.63-16.27
		c-7.24-8.84-13.5-18.47-21.16-26.97c-0.66-0.73-1.76-0.83-2.56-0.26c-2.07,1.49-4.03,2.7-5.6,4.81c-0.38,0.51-0.46,1.16-0.25,1.76
		c2.37,6.86-0.32,13.98-1.74,20.91c-5.15,25.01-10.72,49.92-19.21,74.12c-25.62,73.04-55.53,141.02-96.2,207.11
		c-41.66,67.69-88.26,132.36-126.53,202.11c-11.98,21.84-36.26,75.46-36.26,75.46 M318.93,1645.88
		c17.92-37.65,30.93-79.79,29.86-121.73c-0.34-13.4-12.33-11.35-21.91-12.81c-16.35-2.5-32.92-9.13-48.83-13.74
		c-3.75-1.09-8.11-2.08-11.29,0.18c-4.2,2.98-3.47,9.33-2.19,14.32c28.84,112.79,103.63,216.6,177.16,304.85
		c0.77,0.92,2.16,0.91,2.95,0.01c2.25-2.57,1.5-5.05,1.06-7.53c-1.92-10.83-2.56-21.74-2.78-32.75c-0.16-8.3,0.5-16.62,0.99-24.79
		c1.38-23.31-1.09-46.54-2.9-69.74c-1.92-24.72-2.6-49.75-5.94-74.33c-3.25-23.95-3.82-48.37-8.02-72.2
		c-2.02-11.46-5.11-13.77-15.14-14.52c-6.57-0.49-34.21-6.76-36.35,1.66c-2.62,10.31-2.72,20.99-4.47,31.44
		c-5.1,30.39-19.95,60.24-35.76,86.4c-2.27,3.76-8.08,11.39-11.09,14.55 M907.05,284.39c-16.2,4.4-30.92,5.14-45.71,3.49
		c-1.05-0.12-2,0.62-2.13,1.68c-0.61,4.86-1.01,9.56-2.09,14.1c-1.1,4.64,1.49,10.44-2.57,14.36c-0.59,0.57-1.52,0.67-2.23,0.25
		c-3.27-1.93-3.75-5.07-4.6-7.83c-3.52-11.44-7.04-22.88-9.09-34.71c-0.38-2.21-0.69-4.45-2.74-6.36c-1.08-1.01-2.85-0.51-3.21,0.92
		c-2.94,11.47-3.72,23.3-10.03,32.11c-0.34,0.47-0.47,1.07-0.32,1.63c2.43,9.18,6.73,16.62,7.08,25.2c0.01,0.34,0.1,0.68,0.29,0.95
		c1.51,2.08,4.78,2.99,4.54,6.29c-0.01,0.16-0.04,0.33-0.09,0.48c-0.43,1.29-1.33,2.38-2.56,2.48c-7.66,0.68-14.69-1.41-22.18-5.48
		c-1.36-0.74-3,0.32-2.86,1.86c0.92,10.04,1.22,19,4.5,27.18c0.23,0.57,0.73,0.98,1.32,1.15c6.65,1.83,12.37-2.25,18.82-1.28
		c0.74,0.11,1.34,0.64,1.57,1.35c3.36,10.4,11.67,17.25,20.53,24.51c1.44,1.11,10.97-2.87,12.67-3.34c7.42-2.05,14.4-2.39,22.14-2.2
		c15.08,0.37,30.09,2.35,45.18,2.28c15.1-0.07,30.02-2.98,45.1-3.44c1.53-0.05,3.31,0.01,4.47-1.56c0.46-0.62,0.45-1.47,0.04-2.12
		c-4.89-7.8-8.69-16.35-11.37-24.61c-0.08-0.24-0.2-0.46-0.36-0.65c-2.61-3.1-5.44-4.58-8.17-6.32c-6.71-4.29-14.58-4.31-21.85-6.29
		c-12.63-3.45-24.79-9.72-38.55-7.97c-0.65,0.08-1.38-0.35-2.55-0.9c-0.7-0.33-1.15-1.04-1.12-1.81
		c0.56-14.02,5.71-27.21,10.49-42.97C909.83,285.37,908.51,283.99,907.05,284.39z M610.12,671.85c-0.63,1.18,0.1,2.63,1.42,2.83
		c6.3,0.93,11.04-1.24,15-4.82c7.43-6.75,15.55-12.31,24.34-17.1c5-2.72,8.66-6.9,10.72-12.57c2.21-6.08,3.4-12.19,2.64-18.55
		c-1-8.33,0.46-15.81,6.08-22.33c1.41-1.63,2.77-3.5,2.44-6.34c-0.03-0.3-0.16-0.59-0.33-0.84c-7.73-11.09-5.44-25.7-10.84-38.82
		c-0.6-1.45-2.59-1.61-3.42-0.29c-3.14,4.98-6,9.52-8.79,13.95c-0.44,0.69-0.38,1.58,0.12,2.23c1.59,2.04,4.18,3.15,4.56,6.33
		c0.04,0.35-0.04,0.71-0.2,1.02C638.32,607.24,626.95,640.46,610.12,671.85z M791.83,30.06l1.9,39c0.04,0.86,0.64,1.58,1.48,1.78
		l9.72,2.31l0,0c4.89-5.07,15.87-16.55,19.92-20.78c0.81-0.85,0.68-2.22-0.28-2.9L794.87,28.4
		C793.56,27.47,791.76,28.46,791.83,30.06z M585.81,96.8l-2.84,24.83c-0.15,1.33,1.06,2.4,2.36,2.09l13.3-3.15
		c1.2-0.28,1.83-1.6,1.29-2.71l-10.46-21.69C588.63,94.45,586.03,94.88,585.81,96.8z"/>
</g>
</svg>
