<?xml version="1.0" encoding="utf-8"?>
<!-- Generator: Adobe Illustrator 23.0.3, SVG Export Plug-In . SVG Version: 6.00 Build 0)  -->
<svg version="1.1" id="Ebene_1_xA0_Bild_1_" xmlns="http://www.w3.org/2000/svg" xmlns:xlink="http://www.w3.org/1999/xlink"
	 x="0px" y="0px" viewBox="0 0 1241.03 483.59" style="enable-background:new 0 0 1241.03 483.59;" xml:space="preserve">
<style type="text/css">
	.st0{fill:none;}
</style>
<g>
	<path d="M974.62,231.35v-59.77l65.15-60.51h179.26c15.12,0,22,6.87,22,22v73.54L942.79,483.59l-31.06-28.85l281.11-261.19v-39.71
		h-134.79L974.62,231.35z"/>
	<g>
		<path d="M693.51,335.79v-40.93h244.41c15.12,0,22,6.87,22,22v82.66l-48.19,44.77v-108.5L693.51,335.79z"/>
		<g>
			<polygon points="704.87,203.02 927.54,203.02 927.54,245.81 704.85,245.81 704.85,245.41 			"/>
			<path d="M927.54,203.02c10.33,0,18.71,9.58,18.71,21.4s-8.38,21.4-18.71,21.4l0-21.4L927.54,203.02z"/>
		</g>
		<g>
			<polygon points="692.97,153.85 692.97,62.9 741.18,62.9 741.18,111.06 940.68,111.06 940.67,153.85 			"/>
			<path d="M940.68,132.46l0,21.4c10.33,0,18.71-9.58,18.71-21.4s-8.37-21.4-18.71-21.4L940.68,132.46z"/>
			<path d="M741.18,62.9c0-10.33-10.79-18.71-24.11-18.71c-13.31,0-24.11,8.38-24.11,18.71h24.11H741.18z"/>
		</g>
	</g>
	<g>
		<path d="M630.21,201.49c-13.26-18.6-25.57-32.77-61.04-32.77l-136.1,0.43v166.64h136.1c35.47,0,47.78-15.45,61.04-33.52
			C646.81,279.67,646.32,224.09,630.21,201.49z M592.75,279.55c-6.08,6.95-13.84,11.19-23.56,11.15l-87.38,0v-17.81h77.96
			c9.64,0,16.26-5.69,17.73-14.25c0.8-4.64,0.82-9.65,0.02-14.29c-1.61-9.28-8.11-13.95-17.75-13.95H481.8v-18.22h87.15
			c11.23,0.05,19.82,5.55,26.17,14.47C606.05,242,605.13,265.4,592.75,279.55z"/>
		<g>
			<path d="M548.77,18.71c0,10.33-10.79,18.71-24.11,18.71c-13.31,0-24.11-8.38-24.11-18.71h24.11H548.77z"/>
			<polygon points="500.55,18.7 548.77,18.7 548.76,0 500.57,0 			"/>
		</g>
		<g>
			<path d="M597.48,111.06V87.19l35.68-0.2l0-42.79l-228.6,0.01v42.78h47.72v24.07h-70.77v42.79h270.36v-42.79L597.48,111.06z
				 M549.35,111.06h-48.19V86.99h48.19V111.06z"/>
			<path d="M651.3,111.06c10.33,0,18.71,9.58,18.71,21.4s-8.38,21.4-18.71,21.4l0-21.4L651.3,111.06z"/>
			<path d="M632.59,44.2c10.33,0,18.71,9.58,18.71,21.4s-8.38,21.4-18.71,21.4l0-21.4L632.59,44.2z"/>
		</g>
	</g>
	<g>
		<path d="M367.99,335.79h-48.84V86.41h-94.96V44.21l123.79-0.01c12.87-0.09,20.01,6.89,20,18.11L367.99,335.79z"/>
		<path d="M0,214.77L133.69,89.31H71.25V44.22l124.22,0.01c0,0,16.62-1.19,21.8,12.3c5.21,13.56-6.02,24.91-6.02,24.91L0,278.87
			V214.77z"/>
		<path d="M215.97,282.02l-48.23-46.64v100.42H121.8V184.32c0,0-0.88-15.15,13.14-22.79c13.1-7.06,23.93,2.51,23.93,2.51
			l57.11,55.22V282.02z"/>
		<g>
			<polygon points="120.8,0 168.99,0 168.99,18.7 120.78,18.7 			"/>
			<path d="M144.89,18.71h-24.11c0,10.33,10.79,18.71,24.11,18.71s24.11-8.38,24.11-18.71H144.89z"/>
		</g>
		<g>
			<path d="M247.86,116.3c0-10.33,10.79-18.71,24.11-18.71s24.11,8.38,24.11,18.71h-24.11H247.86z"/>
			<path d="M296.07,335.79c0.01-71.15,0-219.49,0-219.49h-48.21l0.01,219.49H296.07z"/>
		</g>
		<g>
			<polygon points="241.07,97.59 241.07,157.71 215.79,179.35 185.53,149.09 			"/>
			<path d="M200.66,164.22l-15.13-15.13c-7.31,7.31-6.45,20,1.9,28.36c8.36,8.36,21.05,9.21,28.36,1.9L200.66,164.22z"/>
		</g>
	</g>
</g>
<line class="st0" x1="959.92" y1="399.52" x2="959.92" y2="409.97"/>
</svg>
