<?xml version="1.0" encoding="utf-8"?>
<!-- Generator: Adobe Illustrator 23.0.3, SVG Export Plug-In . SVG Version: 6.00 Build 0)  -->
<svg version="1.1" id="Ebene_1" xmlns="http://www.w3.org/2000/svg" xmlns:xlink="http://www.w3.org/1999/xlink" x="0px" y="0px"
	 viewBox="0 0 595.28 841.89" style="enable-background:new 0 0 595.28 841.89;" xml:space="preserve">
<style type="text/css">
	.st0{clip-path:url(#SVGID_2_);}
	.st1{clip-path:url(#SVGID_4_);}
	.st2{clip-path:url(#SVGID_6_);}
	.st3{clip-path:url(#SVGID_8_);}
</style>
<g>
	<g>
		<defs>
			<rect id="SVGID_1_" x="87.8" y="127.95" width="363.87" height="449.88"/>
		</defs>
		<clipPath id="SVGID_2_">
			<use xlink:href="#SVGID_1_"  style="overflow:visible;"/>
		</clipPath>
		<g class="st0">
			<defs>
				<rect id="SVGID_3_" x="87.8" y="127.95" width="363.87" height="449.88"/>
			</defs>
			<clipPath id="SVGID_4_">
				<use xlink:href="#SVGID_3_"  style="overflow:visible;"/>
			</clipPath>
			<path class="st1" d="M219.27,404.44c-1.25,7.71-3.53,13.92-6.18,21.43c-1.32,3.73-2.67,9.02-3.66,12.79
				c-1.12,4.23-0.8,8.76-1,13.08c-0.13,2.97-0.17,5.94-0.4,8.91c-0.15,1.97-0.04,3.97-0.03,5.8c0,0.11,0.04,0.22,0.11,0.29
				c0.59,0.61,1.27,0.64,1.88,0.82c17.7,5.2,32,18.54,30.47,38.15c-0.12,1.5-0.47,10.15-2.25,10.34c-2.47,0.27-1.6-9.99-1.77-11.38
				c-0.61-5.07-2.5-9.99-5.51-14.12c-4.98-6.82-12.33-10.7-20.54-11.96c-1.08-0.17-2.17-0.39-3.24-0.19
				c-0.08,0.01-0.15,0.05-0.2,0.1c-0.71,0.62-0.69,1.61-0.77,2.47c-0.58,6.3-1.16,12.59-1.02,18.93c0.19,8.3,0.44,16.6,1.44,24.85
				c0.27,2.2,0.68,4.38,1.22,6.54c1.1,4.44,1.85,8.94,2.56,13.46c0.85,5.37,2.1,10.63,4.84,15.4c1.06,1.85,2.34,3.56,3.48,5.36
				c1.5,2.37,2.7,7.16,1.55,9.9c-0.72,1.73-3.5,2.07-5.11,2.22c-4.75,0.43-10.79,0.32-15.04-2.18c-2.24-1.32-5.13-4.92-5.65-7.5
				c-0.45-2.25-1.5-4.36-1.55-6.71c0-0.12-0.05-0.24-0.14-0.32c-1.3-1.17-2.23-2.61-2.99-4.1c-4.79-9.41-15.33-15.59-23.76-21.27
				c-10.78-7.26-22.89-12.62-33.44-20.08c-27.29-19.31-46.36-51.36-44.66-85.44c1.01-20.3,9.13-39.58,18.75-57.48
				c15.24-28.35,35.33-53.1,52.91-79.85c16.49-25.1,34.5-49.82,42.96-79.04c2.9-10.02,4.26-20.3,3.44-30.73
				c-0.32-4.14-0.96-8.28-0.64-12.42c0.46-5.89,3.28-11.58,9.22-13.48c0.15-0.05,0.26-0.17,0.29-0.32l3.53-15.58
				c0.04-0.18,0.19-0.32,0.37-0.34l4.46-0.6c0.18-0.02,0.36,0.07,0.45,0.23l5.78,10.7c0.13,0.25,0.46,0.31,0.68,0.12
				c4.16-3.57,8.66-6.68,14.33-6.12c0.1,0.01,0.21-0.02,0.29-0.08c5.93-4.11,12.2-4.93,18.95-3.4c0.28,0.06,0.55-0.15,0.54-0.44
				l-0.33-10.75c-0.01-0.17,0.09-0.34,0.25-0.41l4.33-2.07c0.14-0.07,0.3-0.06,0.43,0.02l12.93,8.12c0.12,0.08,0.27,0.09,0.41,0.03
				c0.45-0.2,1.24-0.86,2.09-1.16c1.79-0.64,3.54-0.67,5.28,0.27c1.84,1,3.39,2.26,4.61,3.99c2.61,3.68,4.62,7.71,6.81,11.63
				c3.35,5.98,6.8,11.91,10.29,17.81c3.84,6.5,7.74,12.95,11.83,19.3c0.63,0.98,1.33,1.83,2.25,2.55c4.09,3.19,8.28,6.24,12.55,9.18
				c3.22,2.22,6.48,4.37,9.51,6.86c0.08,0.06,0.13,0.15,0.15,0.25c0.44,2.04,1.45,3.77,2.49,5.49c0.39,0.65,0.69,1.36,0.94,2.08
				c0.73,2.09,0.27,3.94-1.16,5.45c-0.07,0.08-0.12,0.18-0.12,0.29c0,1.07,0.73,1.64,1.29,2.27c8.28,9.2,15.96,18.07,24.72,26.8
				c9.06,9.04,17.49,18.72,25.19,28.93c15.24,20.2,27.69,42.51,36.8,66.13c7.03,18.24,12.1,37.34,13.56,56.83
				c1.53,20.58-1.43,41.97-10.42,60.68c-8.19,17.03-22.61,29.68-35.33,43.23c-7.92,8.44-16.33,17.43-19.27,28.95
				c-1.87,7.32-1.69,15.15,0.51,22.38c0.83,2.73,1.95,5.38,3.26,7.92c0.67,1.29-0.5,1.73-1.58,1.27c-1.41-0.6-2.83-2.29-3.87-3.37
				c-2.4-2.5-4.36-5.39-5.88-8.5c-7.24-14.79-4.15-31.68-0.15-46.9c2.87-10.91,5.78-21.83,8.05-32.88c0.68-3.32,1.3-6.65,1.85-9.99
				c2.66-16.24,2.78-32.7,3.25-49.11c0.01-0.29-0.03-0.65-0.3-0.76c-0.37-0.14-0.65,0.34-0.75,0.72
				c-1.73,6.34-4.55,12.17-7.04,18.23c-5.88,14.29-15.16,26.43-18.82,41.69c-1.96,8.16-2.74,16.61-2.29,24.99
				c0.35,6.49,1.56,12.52,3.55,18.67c0.48,1.5,1.92,7.86-1.58,5.39c-5.64-3.99-8.66-11.17-10.79-17.51
				c-2.44-7.27-3.33-14.96-3.12-22.6c0.59-21.82,8.98-42.32,14.49-63.17c8.26-31.22,11.91-63.52,2.82-94.97
				c-8.24-28.52-24.34-53.77-37.99-79.86c-0.83-1.59-1.65-3.18-2.46-4.77c-1.71-3.36-3.8-6.41-5.76-9.54
				c-0.07-0.12-0.2-0.2-0.34-0.21c-1.98-0.15-3.81,0.15-5.58,0.53c-3.05,0.67-6.14,1.15-9.2,1.73c-6.78,1.29-11.43,5.38-14.82,11.18
				c-0.93,1.59-1.77,3.2-2.22,4.99c-1.16,4.63-0.28,8.83-2.61,13.16c-2.27,4.22-1.62,9.39-3.91,13.64
				c-1.13,2.09-1.66,4.35-2.28,6.59c-0.49,1.78-0.2,3.53,0.53,5.14c1.04,2.29,1.18,4.64,1.17,7.1c-0.02,4.41,0.9,8.63,3.45,12.33
				c1.23,1.79,1.93,3.8,2.69,5.79c1.51,3.91,2.8,7.91,4.49,11.74c1.35,3.05,2.33,6.27,4.14,9.05c0.08,0.12,0.1,0.26,0.04,0.39
				c-0.6,1.54-1.78,2.6-3.26,3.28c-0.75,0.34-1.55,0.59-2.34,0.83c-0.42,0.12-0.84,0.24-1.26,0.37c-0.83,0.25-1.66-0.46-2.2,0.45
				c-0.36,0.61-0.72,0.69-1.36,0.88c-0.28,0.08-0.4,0.4-0.26,0.65c2.32,4,4.71,7.91,6.16,12.54c0.02,0.05,0.04,0.09,0.07,0.13
				c1.33,1.75,3,3.62,3.73,5.9c0.04,0.11,0.02,0.24-0.03,0.35c-0.35,0.66-0.97,0.75-1.38,1c-0.09,0.06-0.17,0.14-0.19,0.25
				c-0.22,0.82,0.28,1.31,0.59,1.86c1.74,3.04,3.78,5.9,5.36,9.04c0.76,1.5,1.43,3.03,1.76,4.68c0.15,0.79,0.29,1.57-0.12,2.5
				c-0.04,0.09-0.12,0.17-0.2,0.21c-1.89,0.94-4.09,1.18-6.39,1.63c-0.17,0.03-0.34-0.03-0.44-0.17
				c-3.65-4.84-6.21-10.31-9.38-15.41c-0.29-0.46-1-0.09-0.78,0.41c0.04,0.09,0.07,0.17,0.1,0.25c0.69,2.42,1.43,4.82,2.17,7.23
				c1.05,3.42,1.95,6.88,2.31,10.46c0.11,1.05,0.75,1.94,1.01,2.99c1.57,6.16,1.96,12.66,2.89,18.94
				c1.55,10.95,1.79,23.8,6.65,33.88c1.96,4.08,4.29,7.87,6.89,11.55c6.33,8.99,11.95,18.42,16.43,28.49
				c3.62,8.15,7.18,16.31,10.71,24.5c0.55,1.29,1.42,2.34,2.14,3.49c2.21,3.57,3.7,7.5,5.73,11.17c2.32,4.18,3.94,8.74,4.53,13.58
				c0.33,2.71-0.28,5.43-0.31,8.15c-0.03,2.4,0.14,4.8,0.03,7.2c-0.1,2.18-0.69,4.28-0.21,6.46c0.48,2.17,0.6,4.4,0.77,6.61
				c0.11,1.48,0.94,4.1,0.11,5.45c-0.37,0.61-0.99,1.01-1.61,1.37c-4.98,2.92-10.46,3.38-16.01,4.4c-6.53,1.21-8.92-5.52-7.16-10.8
				c0.31-0.94,0.66-1.86,1.11-2.75c2.72-5.36,3.12-11.54,3.12-17.45c0.01-5.85,0.12-12.65-1.78-18.24
				c-0.62-1.82-1.57-3.46-2.31-5.21c-3.91-9.24-8.71-18.07-13.76-26.73c-5.33-9.13-10.46-18.32-17.29-26.45
				c-2.43-2.89-5.36-5.26-7.47-8.38c-1.69-2.49-2.56-5.43-4.2-7.59c-0.03-0.03-0.05-0.07-0.06-0.11c-1.79-4.9-3.19-9.67-5.25-14.12
				c-4.48-9.65-8.05-19.69-12.34-29.43c-4.2-9.56-8.56-19.08-11.82-29.02c-1.45-4.44-2.62-8.87-3.34-13.46
				c-0.02-0.12-0.08-0.23-0.18-0.29c-0.77-0.53-1.57-1.09-2.21-1.54c-0.85-0.38-1.29,0.28-1.86,0.29c-0.04,0-0.08-0.01-0.12-0.02
				c-3.7-0.92-7.31-2.1-10.76-3.45c-0.11-0.04-0.22-0.04-0.33,0c-0.3,0.13-0.44,0.34-0.51,0.59c-2.14,7.7-4,15.49-6.75,23.02
				c-0.39,1.06-0.82,2.2-0.82,3.3 M152.17,358.67c-0.06,0.05-0.1,0.11-0.13,0.18c-5.18,12.94-8.54,27.96-9.43,41.86
				c-0.7,10.88,0.81,22.16,6.14,31.66c4.11,7.31,10.27,13.2,17.02,18.07c2.13,1.54,15.2,11.42,18.09,8.59
				c0.05-0.05,0.08-0.1,0.1-0.16c0.22-0.68,0.08-1.41,0.09-2.13c0.11-4.88,0.3-9.76,1.14-14.56c3.94-22.62,3.15-45.41,5.79-68.11
				c0.14-1.21,0.11-2.38,1.06-3.37c0.43-0.45,0.59-1.23,0.74-1.88c0.54-2.45,1.01-4.92,1.52-7.38c0.89-4.33,1.72-8.66,2.7-12.97
				c0.58-2.56,1.38-5.07,2.07-7.56c0.05-0.17-0.01-0.34-0.14-0.45c-3.9-3.36-4.31-3.6-6.23-3.3c-0.15,0.02-0.28,0.12-0.34,0.26
				c-1.23,2.91-2.5,5.84-3.71,8.79c-2.14,5.21-4.53,10.32-6.48,15.6c-0.23,0.62-0.7,1.06-1.24,1.4c-0.07,0.04-0.15,0.07-0.24,0.06
				c-1.83-0.02-3.26-0.92-4.6-2c-3.02-2.43-5.96-4.95-8.4-7.99c-0.49-0.61-0.93-1.33-1.76-1.61c-0.18-0.06-0.37,0.01-0.49,0.15
				c-1.97,2.61-3.38,5.7-6.37,7.11c-0.08,0.04-0.17,0.05-0.26,0.04c-0.96-0.15-1.47-0.56-1.71-1.45c-0.03-0.1-0.02-0.2,0.02-0.29
				c0.88-2.02,2.92-3.47,3.94-5.71c0.15-0.33-0.13-0.68-0.49-0.62c-1.47,0.27-2.34,1.26-3.12,2.27
				C155.87,355.19,154.13,357.05,152.17,358.67 M167.23,335.47c2.9-7.14,8.12-13.36,12.78-19.4c4.05-5.25,8.01-10.69,11.76-16.17
				c0.99-1.45,1.93-2.9,3.63-3.69c0.58-0.27,1.03-0.9,1.45-1.43c2.47-3.12,5.22-5.96,8.27-8.52c0.82-0.69,1.56-1.45,2.02-2.45
				c0.56-1.25,1.16-2.48,1.74-3.72c1.46-3.1,2.76-6.29,4.68-9.15c1.6-2.38,2.44-5.05,3.14-7.79c0.26-1.03,0.39-2.11,0.78-3.09
				c0.89-2.25,1.59-4.58,2.87-6.66c0.37-0.59,1.22-0.62,1.48-1.15c0.68-1.77,1.34-3.39,1.92-5.04c1.5-4.23,3.12-8.42,4.48-12.7
				c1.12-3.52,2.28-7.08,4.99-9.67c0.02-0.02,0.05-0.04,0.07-0.06c2.28-1.49,4.85-1.99,7.26-2.88c2.27-0.84,4.79-0.85,7.24-1.87
				c0.21-0.09,0.33-0.33,0.25-0.55c-0.3-0.86-0.1-1.71-0.33-2.48c-0.01-0.04-0.03-0.08-0.05-0.12c-0.9-1.42-1.77-2.79-2.7-4.24
				c-0.04-0.07-0.1-0.12-0.17-0.15c-1.75-0.9-3.16-2.33-4.27-4.02c-0.71-1.07-1.19-2.29-1.81-3.42c-0.21-0.39-0.71-0.95-1.03-0.43
				c-0.22,0.35,0.35,2.01,0.43,2.45c0.16,0.89,0.32,1.78,0.51,2.67c0.16,0.75,0.61,1.67,0.13,2.38c-1.11,1.64-4.71-2.88-5.41-3.73
				c-1.66-2.02-3.09-4.23-4.84-6.17c-0.15-0.17-0.4-0.19-0.59-0.06c-0.47,0.34-0.92,0.62-1.28,1.1c-0.09,0.12-0.1,0.27-0.06,0.4
				c0.54,1.57-0.07,3.2-0.4,4.79c-1.18,5.72-2.45,11.43-4.4,16.97c-5.87,16.72-12.71,32.28-22.02,47.41
				c-9.54,15.5-20.21,30.3-28.96,46.27c-2.74,5-8.3,17.27-8.3,17.27 M160.8,504.72c4.1-8.62,7.08-18.27,6.83-27.87
				c-0.08-3.07-2.82-2.6-5.02-2.93c-3.74-0.57-7.54-2.09-11.18-3.14c-0.86-0.25-1.86-0.48-2.59,0.04c-0.96,0.68-0.79,2.14-0.5,3.28
				c6.6,25.82,23.72,49.58,40.55,69.79c0.18,0.21,0.5,0.21,0.68,0c0.52-0.59,0.34-1.16,0.24-1.72c-0.44-2.48-0.59-4.98-0.64-7.5
				c-0.04-1.9,0.12-3.8,0.23-5.68c0.32-5.34-0.25-10.65-0.66-15.97c-0.44-5.66-0.59-11.39-1.36-17.02
				c-0.74-5.48-0.87-11.07-1.84-16.53c-0.46-2.62-1.17-3.15-3.47-3.32c-1.5-0.11-7.83-1.55-8.32,0.38c-0.6,2.36-0.62,4.81-1.02,7.2
				c-1.17,6.96-4.57,13.79-8.19,19.78c-0.52,0.86-1.85,2.61-2.54,3.33 M295.43,193.05c-3.71,1.01-7.08,1.18-10.46,0.8
				c-0.24-0.03-0.46,0.14-0.49,0.38c-0.14,1.11-0.23,2.19-0.48,3.23c-0.25,1.06,0.34,2.39-0.59,3.29c-0.14,0.13-0.35,0.15-0.51,0.06
				c-0.75-0.44-0.86-1.16-1.05-1.79c-0.8-2.62-1.61-5.24-2.08-7.95c-0.09-0.51-0.16-1.02-0.63-1.46c-0.25-0.23-0.65-0.12-0.74,0.21
				c-0.67,2.63-0.85,5.33-2.3,7.35c-0.08,0.11-0.11,0.24-0.07,0.37c0.56,2.1,1.54,3.8,1.62,5.77c0,0.08,0.02,0.16,0.07,0.22
				c0.35,0.48,1.09,0.68,1.04,1.44c0,0.04-0.01,0.07-0.02,0.11c-0.1,0.3-0.3,0.54-0.59,0.57c-1.75,0.15-3.36-0.32-5.08-1.25
				c-0.31-0.17-0.69,0.07-0.65,0.43c0.21,2.3,0.28,4.35,1.03,6.22c0.05,0.13,0.17,0.23,0.3,0.26c1.52,0.42,2.83-0.52,4.31-0.29
				c0.17,0.03,0.31,0.15,0.36,0.31c0.77,2.38,2.67,3.95,4.7,5.61c0.33,0.25,2.51-0.66,2.9-0.77c1.7-0.47,3.3-0.55,5.07-0.5
				c3.45,0.08,6.89,0.54,10.34,0.52c3.46-0.02,6.87-0.68,10.32-0.79c0.35-0.01,0.76,0,1.02-0.36c0.1-0.14,0.1-0.34,0.01-0.49
				c-1.12-1.79-1.99-3.74-2.6-5.63c-0.02-0.05-0.05-0.11-0.08-0.15c-0.6-0.71-1.25-1.05-1.87-1.45c-1.54-0.98-3.34-0.99-5-1.44
				c-2.89-0.79-5.68-2.23-8.82-1.82c-0.15,0.02-0.31-0.08-0.58-0.21c-0.16-0.07-0.26-0.24-0.26-0.42c0.13-3.21,1.31-6.23,2.4-9.84
				C296.07,193.28,295.77,192.96,295.43,193.05 M227.46,281.75c-0.15,0.27,0.02,0.6,0.33,0.65c1.44,0.21,2.53-0.28,3.43-1.1
				c1.7-1.54,3.56-2.82,5.57-3.91c1.14-0.62,1.98-1.58,2.45-2.88c0.51-1.39,0.78-2.79,0.6-4.25c-0.23-1.91,0.11-3.62,1.39-5.11
				c0.32-0.37,0.63-0.8,0.56-1.45c-0.01-0.07-0.04-0.13-0.08-0.19c-1.77-2.54-1.24-5.88-2.48-8.89c-0.14-0.33-0.59-0.37-0.78-0.07
				c-0.72,1.14-1.37,2.18-2.01,3.19c-0.1,0.16-0.09,0.36,0.03,0.51c0.36,0.47,0.96,0.72,1.04,1.45c0.01,0.08-0.01,0.16-0.05,0.23
				C233.92,266.96,231.32,274.56,227.46,281.75 M269.06,134.83l0.43,8.93c0.01,0.2,0.15,0.36,0.34,0.41l2.23,0.53
				c1.12-1.16,3.63-3.79,4.56-4.76c0.19-0.19,0.15-0.51-0.06-0.66l-6.8-4.83C269.46,134.24,269.04,134.47,269.06,134.83
				 M221.9,150.11l-0.65,5.68c-0.03,0.3,0.24,0.55,0.54,0.48l3.04-0.72c0.27-0.06,0.42-0.37,0.3-0.62l-2.39-4.96
				C222.54,149.57,221.95,149.67,221.9,150.11"/>
		</g>
	</g>
</g>
<g>
	<g>
		<defs>
			<rect id="SVGID_5_" x="85.04" y="546.34" width="425.2" height="167.6"/>
		</defs>
		<clipPath id="SVGID_6_">
			<use xlink:href="#SVGID_5_"  style="overflow:visible;"/>
		</clipPath>
		<g class="st2">
			<defs>
				<rect id="SVGID_7_" x="85.04" y="546.34" width="425.2" height="167.6"/>
			</defs>
			<clipPath id="SVGID_8_">
				<use xlink:href="#SVGID_7_"  style="overflow:visible;"/>
			</clipPath>
			<path class="st3" d="M420.39,625.06c0-5.49,0.21-10.75-0.08-15.98c-0.18-3.26,0.83-5.47,3.28-7.62
				c5.63-4.92,10.98-10.16,16.5-15.21c0.51-0.47,1.44-0.67,2.17-0.67c7.71-0.05,15.42-0.03,23.13-0.04
				c12.56-0.02,25.13-0.07,37.69-0.05c1.29,0,2.64,0.22,3.84,0.67c1.91,0.73,2.99,2.24,2.99,4.36c0.01,8.91,0.02,17.83-0.05,26.74
				c-0.01,0.73-0.44,1.65-0.98,2.16c-11.07,10.49-22.19,20.92-33.29,31.38c-10.76,10.15-21.51,20.31-32.27,30.46
				c-11.38,10.74-22.78,21.46-34.17,32.19c-0.16,0.15-0.37,0.24-0.83,0.52c-3.41-3.72-6.84-7.46-10.3-11.24
				c3.64-3.39,7.76-7.22,11.88-11.07c16.07-15,32.14-30.01,48.21-45.01c9.9-9.23,19.81-18.45,29.72-27.67
				c1.76-1.63,3.57-3.21,5.24-4.93c0.52-0.54,0.91-1.44,0.93-2.19c0.1-3.6,0.01-7.2,0.07-10.8c0.02-1.07-0.16-1.46-1.4-1.46
				c-14.17,0.07-28.34,0.12-42.51,0c-1.72-0.01-2.76,0.55-3.87,1.58c-8.39,7.83-16.8,15.65-25.21,23.46
				C420.98,624.77,420.81,624.83,420.39,625.06"/>
			<path class="st3" d="M232.58,605.16c1.21,0,2.34,0,3.47,0c14.4-0.07,28.8-0.35,43.2-0.15c12.15,0.17,22.75,7.97,26.25,20.29
				c2.59,9.11,1.34,17.76-4.35,25.51c-4.55,6.2-10.87,9.61-18.3,11.04c-1.83,0.35-3.74,0.45-5.61,0.46
				c-14.34,0.03-28.69,0.01-43.03,0c-0.51,0-1.01-0.05-1.63-0.08V605.16z M248.93,626.16c9.16,0,18.12,0.01,27.08,0
				c3.31,0,5.54,1.6,6.09,4.78c0.28,1.59,0.27,3.31-0.01,4.9c-0.5,2.94-3.15,4.98-5.93,4.97c-6.79-0.04-13.59-0.06-20.38-0.08
				c-2.13-0.01-4.27,0-6.4,0v6.1c10.02,0,19.94-0.02,29.86,0.01c3.33,0.01,5.99-1.44,8.08-3.82c4.24-4.85,4.56-12.88,0.81-18.14
				c-2.18-3.06-5.13-4.73-8.98-4.75c-7.65-0.04-15.3-0.14-22.95-0.21c-2.38-0.02-4.75,0-7.27,0V626.16z"/>
			<path class="st3" d="M290.51,577.22v8.19h1.82c5.43,0,10.86-0.01,16.29,0c3.33,0.01,5.47,1.48,6.41,4.36
				c1.03,3.17,0.15,7.19-2.26,8.7c-1.12,0.7-2.67,0.99-4.03,1c-22.52,0.06-45.03,0.04-67.55,0.04c-7.72,0-15.43,0.01-23.15,0.01
				c-0.5,0-1,0-1.59,0V585.4c1.14,0,2.31,0,3.48,0c6.51,0.01,13.03,0.01,19.54,0.04c1.06,0.01,1.5-0.18,1.37-1.45
				c-0.2-1.92-0.12-3.88-0.05-5.82c0.04-1.12-0.4-1.31-1.41-1.3c-4.97,0.05-9.93,0.02-15.03,0.02v-14.41c3.44,0,6.9,0,10.36,0
				c21.77,0,43.55,0,65.32,0c3.68,0,6.2,1.82,7.1,5.18c0.86,3.2-0.67,7.34-3.41,8.82c-0.86,0.46-1.94,0.69-2.93,0.71
				C297.43,577.27,294.07,577.22,290.51,577.22 M273.94,577.36h-16.29v8.25h16.29V577.36z"/>
			<path class="st3" d="M211.45,661.94h-16.66V577.4h-32.56v-14.47c13.54,0,27.06,0,40.58,0c0.63,0,1.25-0.04,1.88-0.1
				c4.26-0.38,6.85,2.03,6.85,6.31c-0.02,23.42-0.03,46.84-0.04,70.26c0,7.25,0.03,14.51,0.04,21.76
				C211.53,661.38,211.49,661.6,211.45,661.94"/>
			<path class="st3" d="M85.35,642.07c0-7.15-0.02-14,0.03-20.85c0-0.54,0.34-1.22,0.74-1.6c11.82-11.11,23.66-22.19,35.51-33.26
				c2.79-2.61,5.62-5.19,8.42-7.79c0.32-0.3,0.6-0.65,1.13-1.24h-21.41v-15.12c0.56-0.04,1.1-0.11,1.65-0.12
				c13.66-0.06,27.31,0.03,40.97-0.22c6.66-0.12,9.24,5.53,6.9,10.92c-0.3,0.7-0.93,1.3-1.5,1.83
				c-14.48,13.54-28.97,27.06-43.45,40.59c-9.35,8.73-18.69,17.48-28.03,26.21C86.11,641.62,85.85,641.74,85.35,642.07"/>
			<path class="st3" d="M396.38,661.54h-74.32v-14.06h13.76c23.6,0,47.19,0,70.79,0c3.28,0,5.19,1.32,5.77,3.98
				c0.14,0.66,0.13,1.36,0.13,2.05c0.01,9.08,0,18.17,0.03,27.25c0,1.13-0.41,1.83-1.25,2.6c-4.67,4.28-9.25,8.67-13.87,13.02
				c-0.28,0.27-0.57,0.54-1.04,0.99V661.54z"/>
			<path class="st3" d="M321.97,600c0-7.1,0-13.94,0-20.78c0-3.2,0-6.4,0-9.6c-0.01-3.46,1.96-5.95,5.33-6.89
				c4.01-1.11,7.32,0.15,10.06,3.04c0.63,0.66,1.03,1.79,1.05,2.72c0.1,5.54,0.05,11.08,0.05,16.8c0.54,0.04,1.02,0.12,1.51,0.12
				c21.99,0,43.99,0,65.98-0.01c4.52,0,8.05,4.76,6.74,9.12c-1.11,3.67-3.55,5.49-7.37,5.49c-27.08,0-54.15,0-81.23,0H321.97z"/>
			<path class="st3" d="M186.82,661.84h-16.48c0-3.38,0-6.73,0-10.07c0.01-21.26,0.08-42.51-0.04-63.77
				c-0.02-3.9,2.01-5.53,4.99-6.63c4.39-1.61,9.64,0.32,11.17,4.07c0.27,0.66,0.4,1.44,0.4,2.16c0.02,24.4,0.01,48.8,0.01,73.2
				C186.87,661.08,186.84,661.36,186.82,661.84"/>
			<path class="st3" d="M159.41,643.41c-5.54-5.24-10.84-10.24-16.5-15.59c0,2.12,0,3.85,0,5.58c0.01,9.03,0.02,18.05,0.02,27.07
				c0,0.76,0.27,1.68-1.05,1.68c-4.84-0.02-9.69-0.01-14.77-0.01c0-2.69,0-5.19,0-7.68c0-15.08,0-30.16,0.02-45.24
				c0-4.12,5.4-8.17,9.67-7.29c1.71,0.35,3.13,1.09,4.43,2.36c5.71,5.6,11.53,11.08,17.25,16.67c0.56,0.55,0.95,1.54,0.96,2.34
				c0.07,6.28,0.03,12.57,0.03,18.85C159.46,642.49,159.43,642.81,159.41,643.41"/>
			<path class="st3" d="M326.05,616.85c5.79,0,11.32-0.01,16.85,0c19.48,0.03,38.97,0.06,58.45,0.08c3.9,0,5.84,1.13,6.85,4.11
				c1.21,3.57,0.36,7.04-2.53,9c-1.05,0.71-2.53,1.11-3.81,1.12c-18.51,0.07-37.03,0.04-55.54,0.05c-6.34,0-12.68,0.06-19.01,0.01
				c-0.42,0-1.2-0.7-1.2-1.09C326.02,625.74,326.05,621.35,326.05,616.85"/>
			<path class="st3" d="M168.02,580.71c0,2.31-0.03,4.62,0.01,6.93c0.06,4.11,0.18,8.21,0.19,12.32c0,0.53-0.34,1.21-0.75,1.55
				c-3.54,2.97-7.08,5.93-10.72,8.77c-1.92,1.5-3.96,0.7-5.75-0.38c-4.35-2.6-5.21-9.06-1.53-12.58
				c5.89-5.64,11.96-11.09,17.96-16.61C167.5,580.67,167.65,580.71,168.02,580.71"/>
			<path class="st3" d="M126.77,546.71h16.52c0,2.95,0,5.84-0.01,8.73c0,0.16-0.09,0.32-0.16,0.47c-1.74,3.29-7.66,5.62-11.19,4.42
				c-3.33-1.14-5.22-3.83-5.17-7.3C126.79,550.97,126.77,548.93,126.77,546.71"/>
			<path class="st3" d="M257.44,546.66c5.32,0,10.35,0.01,15.37-0.01c0.89,0,1.18,0.34,1.16,1.23c-0.05,2.23,0.04,4.46-0.01,6.68
				c-0.05,2.32-1.85,3.46-3.46,4.57c-3.85,2.66-9.91,1.38-12.45-2.53c-0.3-0.46-0.56-1.04-0.58-1.57
				C257.41,552.32,257.44,549.59,257.44,546.66"/>
		</g>
	</g>
</g>
</svg>
