<?xml version="1.0" encoding="utf-8"?>
<!-- Generator: Adobe Illustrator 23.0.3, SVG Export Plug-In . SVG Version: 6.00 Build 0)  -->
<svg version="1.1" id="Ebene_1_xA0_Bild_1_" xmlns="http://www.w3.org/2000/svg" xmlns:xlink="http://www.w3.org/1999/xlink"
	 x="0px" y="0px" viewBox="0 0 367.99 1508.93" style="enable-background:new 0 0 367.99 1508.93;" xml:space="preserve">
<g>
	<path d="M62.89,1256.68v-59.77l65.15-60.51H307.3c15.12,0,22,6.87,22,22v73.54L31.06,1508.93L0,1480.08l281.11-261.19v-39.71
		H146.32L62.89,1256.68z"/>
	<g>
		<path d="M63.42,1039.79v-40.93h244.41c15.12,0,22,6.87,22,22v82.66h-48.19v-63.73L63.42,1039.79z"/>
		<g>
			<polygon points="74.79,907.02 297.46,907.02 297.45,949.82 74.77,949.82 74.77,949.41 			"/>
			<path d="M297.46,907.02c10.33,0,18.71,9.58,18.71,21.4c0,11.82-8.38,21.4-18.71,21.4l0-21.4L297.46,907.02z"/>
		</g>
		<g>
			<polygon points="62.89,857.86 62.89,766.9 111.1,766.9 111.1,815.06 310.59,815.06 310.59,857.86 			"/>
			<path d="M310.59,836.46l0,21.4c10.33,0,18.71-9.58,18.71-21.4c0-11.82-8.37-21.4-18.71-21.4L310.59,836.46z"/>
			<path d="M111.1,766.9c0-10.33-10.79-18.71-24.11-18.71s-24.11,8.38-24.11,18.71h24.11H111.1z"/>
		</g>
	</g>
	<g>
		<path d="M288.45,574.69c-13.26-18.6-25.57-32.77-61.04-32.77l-136.1,0.43V709h136.1c35.47,0,47.78-15.45,61.04-33.52
			C305.04,652.88,304.56,597.3,288.45,574.69z M250.98,652.75c-6.08,6.95-13.84,11.19-23.56,11.15l-87.38,0v-17.81H218
			c9.64,0,16.26-5.69,17.73-14.25c0.8-4.64,0.82-9.65,0.02-14.29c-1.61-9.28-8.11-13.95-17.75-13.95h-77.96v-18.22h87.15
			c11.23,0.05,19.82,5.55,26.17,14.47C264.29,615.21,263.36,638.6,250.98,652.75z"/>
		<g>
			<path d="M207,391.91c0,10.33-10.79,18.71-24.11,18.71s-24.11-8.38-24.11-18.71h24.11H207z"/>
			<polygon points="158.79,391.91 207,391.91 206.99,373.21 158.8,373.21 			"/>
		</g>
		<g>
			<path d="M255.72,484.27V460.4l35.68-0.2l0-42.79l-228.6,0.01v42.78h47.72v24.07H39.75v42.79h270.36v-42.79L255.72,484.27z
				 M207.58,484.26h-48.19v-24.07h48.19V484.26z"/>
			<path d="M309.53,484.27c10.33,0,18.71,9.58,18.71,21.4c0,11.82-8.38,21.4-18.71,21.4l0-21.4L309.53,484.27z"/>
			<path d="M290.82,417.4c10.33,0,18.71,9.58,18.71,21.4c0,11.82-8.38,21.4-18.71,21.4l0-21.4L290.82,417.4z"/>
		</g>
	</g>
	<g>
		<path d="M367.99,335.79h-48.84V86.41h-94.96V44.21l123.79-0.01c12.87-0.09,20.01,6.89,20,18.11L367.99,335.79z"/>
		<path d="M0,214.77L133.69,89.31H71.25V44.22l124.22,0.01c0,0,16.62-1.19,21.8,12.3c5.21,13.56-6.02,24.91-6.02,24.91L0,278.87
			V214.77z"/>
		<path d="M215.97,282.02l-48.23-46.64v100.42H121.8V184.32c0,0-0.88-15.15,13.14-22.79c13.1-7.06,23.93,2.51,23.93,2.51
			l57.11,55.22V282.02z"/>
		<g>
			<polygon points="120.8,0 168.99,0 168.99,18.7 120.78,18.7 			"/>
			<path d="M144.89,18.71h-24.11c0,10.33,10.79,18.71,24.11,18.71s24.11-8.38,24.11-18.71H144.89z"/>
		</g>
		<g>
			<path d="M247.86,116.3c0-10.33,10.79-18.71,24.11-18.71s24.11,8.38,24.11,18.71h-24.11H247.86z"/>
			<path d="M296.07,335.79c0.01-71.15,0-219.49,0-219.49h-48.21l0.01,219.49H296.07z"/>
		</g>
		<g>
			<polygon points="241.07,97.59 241.07,157.71 215.79,179.35 185.53,149.09 			"/>
			<path d="M200.66,164.22l-15.13-15.13c-7.31,7.31-6.45,20,1.9,28.36c8.36,8.36,21.05,9.21,28.36,1.9L200.66,164.22z"/>
		</g>
	</g>
</g>
</svg>
